<svg xmlns="http://www.w3.org/2000/svg" viewBox="0 0 33.875 33.875" width="512" height="512"><g fill="#cd9b1d"><path d="M21.173 32.393c-4.11 0-6.222-.592-7.618-.984-.655-.184-1.129-.317-1.558-.317H6.339a.5.5 0 0 1-.5-.5V18.816a.5.5 0 0 1 .5-.5c1.96 0 3.658-1.084 5.046-3.222 1.951-3.008 3.1-4.695 5.162-7.354 1.951-2.514 3.032-5.272 3.226-6.146l.072-.351C19.965.632 20.089 0 21.107 0c1.995 0 3.072 2.303 3.072 4.471 0 1.338-.504 3.138-1.54 5.503-.403.921-.34 1.563-.163 1.833.088.135.212.198.39.198h7.937c.966.111 2.68.864 2.68 2.938 0 1.374-.498 2.14-.968 2.557.464.421.968 1.155.968 2.355 0 1.396-.925 2.276-1.61 2.736.354.405.698 1.087.698 2.209 0 1.597-1.362 2.408-2.229 2.763.344.622.411 1.356.239 2.364-.296 1.729-3.11 2.466-9.408 2.466zM6.839 30.092h5.158c.566 0 1.123.156 1.828.354 1.344.377 3.375.947 7.348.947 7.084 0 8.316-1.023 8.421-1.633.2-1.171-.014-1.675-.425-2.109a.5.5 0 0 1 .25-.83c.021-.005 2.15-.524 2.15-2.019 0-1.491-.74-1.794-.771-1.806a.508.508 0 0 1-.326-.464.498.498 0 0 1 .305-.471c.017-.007 1.705-.715 1.705-2.205 0-1.488-1.063-1.903-1.073-1.907a.5.5 0 0 1 .051-.953c.034-.01 1.022-.321 1.022-2.053 0-1.714-1.668-1.933-1.739-1.941l-7.877.003c-.517 0-.952-.231-1.227-.651-.432-.661-.401-1.674.084-2.782.979-2.236 1.456-3.905 1.456-5.102 0-1.44-.642-3.47-2.072-3.47a.572.572 0 0 0-.199.02l-.081.416-.077.376c-.209.941-1.357 3.895-3.412 6.542-2.04 2.631-3.178 4.302-5.113 7.286-1.47 2.263-3.278 3.491-5.385 3.658v10.794z"/><path d="M6.339 33.875H.893a.5.5 0 0 1-.5-.5V16.196a.5.5 0 0 1 .5-.5h5.446a.5.5 0 0 1 .5.5v17.179a.5.5 0 0 1-.5.5zm-4.946-1h4.446V16.696H1.393v16.179z"/></g></svg>