<svg xmlns="http://www.w3.org/2000/svg" width="74" height="74" viewBox="0 0 74 74"><defs><style>.cls-1{fill-rule:evenodd;filter:url(#filter)}</style><filter id="filter" x="3521" y="7962" width="74" height="74" filterUnits="userSpaceOnUse"><feFlood result="flood" flood-color="#cd9b1d"/><feComposite result="composite" operator="in" in2="SourceGraphic"/><feBlend result="blend" in2="SourceGraphic"/></filter></defs><path id="like-star.svg" class="cls-1" d="M3538.71 8002.26a3.315 3.315 0 1 0 3.3 3.31 3.3 3.3 0 0 0-3.3-3.31zm0 4.44a1.13 1.13 0 1 1 1.12-1.13 1.12 1.12 0 0 1-1.12 1.13zm29.8 16.65a1.08 1.08 0 0 0-1.03-.76h-6.45l-2-6.18a1.082 1.082 0 0 0-2.06 0l-2 6.18h-6.45a1.071 1.071 0 0 0-1.03.76 1.087 1.087 0 0 0 .39 1.22l5.22 3.82-1.99 6.17a1.09 1.09 0 0 0 1.67 1.23l5.22-3.82 5.22 3.82a1.085 1.085 0 0 0 1.36-.07 1.108 1.108 0 0 0 .31-1.15l-1.99-6.18 5.21-3.82a1.092 1.092 0 0 0 .4-1.22zm-7.53 3.73a1.1 1.1 0 0 0-.39 1.23l1.2 3.73-3.15-2.31a1.113 1.113 0 0 0-1.28 0l-3.15 2.31 1.2-3.73a1.1 1.1 0 0 0-.39-1.23l-3.16-2.3h3.9a1.083 1.083 0 0 0 1.03-.76l1.21-3.73 1.2 3.73a1.105 1.105 0 0 0 1.04.76h3.89zm33.96-3.73a1.071 1.071 0 0 0-1.03-.76h-6.45l-1.99-6.18a1.109 1.109 0 0 0-1.04-.75 1.1 1.1 0 0 0-1.03.75l-1.99 6.18h-6.45a1.092 1.092 0 0 0-1.04.76 1.107 1.107 0 0 0 .4 1.22l5.22 3.82-2 6.17a1.112 1.112 0 0 0 .36 1.2 1.1 1.1 0 0 0 1.31.03l5.22-3.82 5.22 3.82a1.085 1.085 0 0 0 1.36-.07 1.1 1.1 0 0 0 .31-1.16l-1.99-6.17 5.22-3.82a1.087 1.087 0 0 0 .39-1.22zm-7.53 3.73a1.117 1.117 0 0 0-.39 1.23l1.2 3.73-3.15-2.31a1.065 1.065 0 0 0-1.27 0l-3.16 2.31 1.21-3.73a1.122 1.122 0 0 0-.4-1.23l-3.15-2.3h3.9a1.093 1.093 0 0 0 1.03-.76l1.2-3.73 1.21 3.73a1.083 1.083 0 0 0 1.03.76h3.9zm-45.33-3.73a1.092 1.092 0 0 0-1.04-.76h-6.45l-1.99-6.18a1.1 1.1 0 0 0-1.04-.75 1.084 1.084 0 0 0-1.03.75l-1.99 6.18h-6.45a1.092 1.092 0 0 0-1.04.76 1.107 1.107 0 0 0 .4 1.22l5.22 3.82-2 6.17a1.122 1.122 0 0 0 .4 1.23 1.08 1.08 0 0 0 1.28 0l5.21-3.82 5.22 3.82a1.088 1.088 0 0 0 1.67-1.22l-1.99-6.18 5.22-3.82a1.107 1.107 0 0 0 .4-1.22zm-7.53 3.73a1.122 1.122 0 0 0-.4 1.23l1.21 3.73-3.16-2.31a1.1 1.1 0 0 0-1.27 0l-3.16 2.31 1.21-3.73a1.122 1.122 0 0 0-.4-1.23l-3.15-2.3h3.9a1.093 1.093 0 0 0 1.03-.76l1.2-3.73 1.21 3.73a1.083 1.083 0 0 0 1.03.76h3.9zm51.66-37.82a4.963 4.963 0 0 0-3.09-8.82h-17.47a19.984 19.984 0 0 0 1.53-5.53c.84-5.87-.42-8.98-1.62-10.56a5.791 5.791 0 0 0-3.95-2.34 2.328 2.328 0 0 0-2.57 2.23c-.2 2.11-.95 7.88-2.01 10.03-2.74 5.51-9.27 8.79-11.28 9.7a4 4 0 0 0-2.62-.98h-8.83a4.05 4.05 0 0 0-4.03 4.06v22.23a4.048 4.048 0 0 0 4.03 4.05h8.83a4 4 0 0 0 2.99-1.34 10.24 10.24 0 0 0 5.55 1.54h28.39a53.373 53.373 0 0 1 6.45-12.68 4.97 4.97 0 0 1 1.54-7.73 4.963 4.963 0 0 0-1.84-3.86zm-43.08 21.89h-8.83a1.865 1.865 0 0 1-1.86-1.87v-22.23a1.865 1.865 0 0 1 1.86-1.87h8.83a1.859 1.859 0 0 1 1.32.56v24.39a1.217 1.217 0 0 0 .07.38 1.848 1.848 0 0 1-1.39.64zm35.43-20.8h4.57a2.77 2.77 0 0 1 0 5.54h-4.57a1.1 1.1 0 0 0 0 2.19h3.03a2.765 2.765 0 0 1 0 5.53h-3.86a1.1 1.1 0 0 0 0 2.19h2.33a2.77 2.77 0 0 1 0 5.54h-28.39a7.938 7.938 0 0 1-4.58-1.33 4.3 4.3 0 0 0 .07-.73v-22.23a4.163 4.163 0 0 0-.19-1.23c2.54-1.17 9.06-4.65 12-10.58 1.47-2.96 2.21-10.51 2.24-10.83v-.1a.178.178 0 0 1 .04-.1.148.148 0 0 1 .09-.03 3.649 3.649 0 0 1 2.49 1.5c.95 1.25 1.93 3.81 1.2 8.92-.61 4.33-2.07 6.23-2.08 6.24a1.106 1.106 0 0 0 .84 1.79h19.34a2.77 2.77 0 0 1 0 5.54h-4.57a1.09 1.09 0 0 0 0 2.18z" transform="translate(-3521 -7962)"/></svg>