<svg xmlns="http://www.w3.org/2000/svg" viewBox="0 0 64 64" width="512" height="512"><path d="M60.049 4A4.053 4.053 0 0 0 56 8.048a4.02 4.02 0 0 0 1.331 2.979l-16.64 13.658-7.597-16.742c1.724-.464 3.004-2.026 3.004-3.895C36.098 1.816 34.281 0 32.049 0S28 1.816 28 4.048c0 1.869 1.28 3.43 3.004 3.895l-7.598 16.742L6.767 11.028a4.024 4.024 0 0 0 1.331-2.979C8.098 5.816 6.281 4 4.049 4S0 5.816 0 8.048s1.816 4.048 4.049 4.048a3.98 3.98 0 0 0 1.041-.153c.007.03.004.061.014.092l9.528 29.091H13.05a.921.921 0 0 0-.921.921v4a.92.92 0 0 0 .921.921h38a.921.921 0 0 0 .921-.921v-4a.92.92 0 0 0-.921-.921h-1.582l9.528-29.091c.01-.03.007-.061.014-.092.334.09.679.153 1.041.153 2.232 0 4.049-1.816 4.049-4.048S62.281 4 60.049 4zM2.098 8.048c0-1.076.875-1.952 1.951-1.952a1.953 1.953 0 0 1 0 3.904 1.953 1.953 0 0 1-1.951-1.952zm48.03 37.079H13.97V42.97h36.158v2.157zM30.098 4.048c0-1.076.875-1.952 1.951-1.952A1.954 1.954 0 0 1 34 4.048 1.954 1.954 0 0 1 32.049 6a1.954 1.954 0 0 1-1.951-1.952zm17.298 37.005H16.701l-8.643-26.39 15.087 12.383a.993.993 0 0 0 1.538-.358l7.366-16.231 7.366 16.231a.993.993 0 0 0 1.538.358L56.04 14.663l-8.644 26.39zM60.049 10a1.953 1.953 0 0 1 0-3.904 1.953 1.953 0 0 1 0 3.904z" fill="#cd9b1d"/></svg>