<svg xmlns="http://www.w3.org/2000/svg" viewBox="0 0 480.012 480.012" width="512" height="512"><path d="M479.166 468.43l-39.16-78.312v-54.112c0-11.52-4.968-21.832-12.784-29.136 12.328-6.824 20.784-19.808 20.784-34.864 0-22.056-17.944-40-40-40s-40 17.944-40 40c0 9.04 3.128 17.296 8.208 24h-16.208c-4.416 0-8-3.592-8-8v-88c0-4.416-3.576-8-8-8h-24.808c-3.72-18.232-19.872-32-39.192-32h-32v-40.408c27.248-1.936 51.824-13.584 70.232-31.592h9.768c30.872 0 56-25.12 56-56 0-4.416-3.576-8-8-8h-25.28c.76-5.24 1.28-10.552 1.28-16 0-4.416-3.576-8-8-8h-208c-4.424 0-8 3.584-8 8 0 5.448.52 10.76 1.28 16h-25.28c-4.424 0-8 3.584-8 8 0 30.88 25.128 56 56 56h9.768c18.416 18.008 42.992 29.656 70.232 31.592v40.408h-32c-19.312 0-35.472 13.768-39.192 32h-24.808c-4.424 0-8 3.584-8 8v88c0 4.408-3.584 8-8 8h-16.208c5.08-6.704 8.208-14.96 8.208-24 0-22.056-17.944-40-40-40s-40 17.944-40 40c0 15.056 8.456 28.04 20.784 34.864-7.816 7.304-12.784 17.616-12.784 29.136v54.112L.846 468.43a7.985 7.985 0 0 0 .352 7.784 8.021 8.021 0 0 0 6.808 3.792h32c3.032 0 5.8-1.712 7.16-4.424l23.152-46.296 9.88 44.456a8.002 8.002 0 0 0 7.808 6.264h32c2.4 0 4.664-1.072 6.184-2.928a8.01 8.01 0 0 0 1.656-6.64l-15.84-79.224v-47.208h8c19.496 0 37.4-10.2 47.512-26.48a55.879 55.879 0 0 0 16.488 2.48h8v47.088l-23.8 103.112a8.02 8.02 0 0 0 1.536 6.784 8.016 8.016 0 0 0 6.264 3.016h40a8 8 0 0 0 7.76-6.056l16.24-64.96 16.24 64.96a8 8 0 0 0 7.76 6.056h40a7.988 7.988 0 0 0 6.256-3.016 7.982 7.982 0 0 0 1.536-6.784l-23.792-103.112v-47.088h8c5.736 0 11.272-.872 16.488-2.48 10.112 16.28 28.016 26.48 47.512 26.48h8v47.208l-15.84 79.224a8.01 8.01 0 0 0 1.656 6.64 7.982 7.982 0 0 0 6.184 2.928h32a8.018 8.018 0 0 0 7.816-6.264l9.88-44.456 23.152 46.296a7.988 7.988 0 0 0 7.152 4.424h32a8.021 8.021 0 0 0 6.808-3.792 7.985 7.985 0 0 0 .352-7.784zm-71.16-220.424c13.232 0 24 10.768 24 24s-10.768 24-24 24-24-10.768-24-24 10.768-24 24-24zm-132.32-40h28.32v56c0 4.408-3.584 8-8 8h-20.32c7.632-8.504 12.32-19.696 12.32-32s-4.688-23.496-12.32-32zm64.432-150.08c.456-.92.904-1.84 1.336-2.776.96-2.056 1.872-4.12 2.704-6.24.248-.624.464-1.264.696-1.896.864-2.312 1.72-4.624 2.432-7.008h19.912c-3.464 16.976-17.704 30.08-35.24 31.808a5.89 5.89 0 0 0 .144-.232c1.104-1.592 2.104-3.256 3.12-4.904.656-1.064 1.328-2.112 1.944-3.192 1.04-1.816 2.008-3.68 2.952-5.56zm-227.304-17.92h19.912c.712 2.384 1.568 4.696 2.432 7.008.232.632.448 1.272.696 1.896.832 2.12 1.744 4.184 2.704 6.24.432.936.88 1.856 1.336 2.776.944 1.88 1.904 3.736 2.952 5.56.616 1.08 1.288 2.128 1.944 3.192 1.024 1.648 2.024 3.312 3.12 4.904.048.072.096.152.144.232-17.544-1.728-31.784-14.832-35.24-31.808zm57.552 33.904a95.94 95.94 0 0 1-14.248-19.464c-.184-.328-.368-.648-.544-.976-3.912-7.272-6.912-15.04-8.84-23.128-1.12-4.672-1.992-9.432-2.4-14.336h191.344c-.408 4.904-1.28 9.672-2.4 14.336a96.02 96.02 0 0 1-8.84 23.128c-.176.328-.36.656-.544.976a96.163 96.163 0 0 1-14.248 19.464c-17.512 18.488-42.224 30.096-69.64 30.096-27.416 0-52.128-11.608-69.64-30.096zm29.64 102.096h80c10.432 0 19.328 6.688 22.632 16H177.374c3.304-9.312 12.2-16 22.632-16zm72 64c0 17.648-14.352 32-32 32s-32-14.352-32-32 14.352-32 32-32 32 14.352 32 32zm-96-32h28.32c-7.632 8.504-12.32 19.696-12.32 32s4.688 23.496 12.32 32h-20.32c-4.416 0-8-3.592-8-8v-56zm-128 64c0-13.232 10.768-24 24-24s24 10.768 24 24-10.768 24-24 24-24-10.768-24-24zm-12.944 192H20.95l31.112-62.208 8.92 2.976 3.176 1.056-29.096 58.176zm84.944-136h-16c-4.424 0-8 3.584-8 8v56c0 .528.056 1.048.16 1.568l14.08 70.432H94.414l-14.6-65.728a8.001 8.001 0 0 0-5.28-5.856l-18.528-6.184v-50.232c0-13.232 10.768-24 24-24h40c8.976 0 16.808-4.952 20.928-12.264 1.624 1.952 3.408 3.752 5.28 5.464.232.216.456.424.696.632 1.928 1.712 3.936 3.32 6.08 4.752-7.376 10.768-19.672 17.416-32.984 17.416zm203.272-34.912c-1.12 1.048-2.32 2.016-3.552 2.936-.592.44-1.144.936-1.768 1.344-6.312 4.176-13.84 6.632-21.952 6.632h-16c-4.424 0-8 3.584-8 8v56a8.5 8.5 0 0 0 .2 1.8l21.744 94.2h-23.696l-22.488-89.944a8 8 0 0 0-15.52 0l-22.488 89.944h-23.696l21.744-94.2a8.5 8.5 0 0 0 .2-1.8v-56c0-4.416-3.576-8-8-8h-16c-8.112 0-15.64-2.456-21.952-6.624-.624-.408-1.168-.904-1.768-1.344-1.232-.92-2.432-1.88-3.552-2.936a41.654 41.654 0 0 1-1.96-1.984 41.399 41.399 0 0 1-2.728-3.296c-.512-.688-1.072-1.352-1.536-2.072a39.764 39.764 0 0 1-3.024-5.568c-.32-.72-.552-1.48-.832-2.216a40.369 40.369 0 0 1-1.432-4.6 42.761 42.761 0 0 1-.504-2.28c-.408-2.312-.712-4.656-.712-7.08v-56h16v56c0 13.232 10.768 24 24 24h112c13.232 0 24-10.768 24-24v-56h16v56c0 2.424-.304 4.768-.712 7.072-.144.768-.32 1.52-.504 2.28a40.369 40.369 0 0 1-1.432 4.6c-.28.736-.512 1.496-.832 2.216a40.608 40.608 0 0 1-3.024 5.568c-.472.72-1.024 1.384-1.536 2.072-.856 1.144-1.752 2.256-2.728 3.296-.632.68-1.28 1.352-1.96 1.984zm82.2 99.328c-.936.312-1.752.84-2.496 1.448-1.368 1.12-2.392 2.632-2.792 4.408l-14.6 65.728h-15.824l14.088-70.432c.096-.52.152-1.04.152-1.568v-56c0-4.416-3.576-8-8-8h-16c-13.312 0-25.608-6.648-32.984-17.416 2.144-1.432 4.16-3.048 6.08-4.752.232-.208.464-.416.696-.632 1.864-1.712 3.656-3.512 5.28-5.464 4.12 7.312 11.952 12.264 20.928 12.264h40c13.232 0 24 10.768 24 24v50.24l-18.528 6.176zm39.472 71.584l-29.096-58.176 3.176-1.056 8.92-2.976 31.112 62.208H444.95z" fill="#cd9b1d"/><path d="M280.174 57.79c-11.336 9.168-25.6 14.216-40.168 14.216v16c18.216 0 36.056-6.312 50.232-17.776l-10.064-12.44zm17.16-21.352a63.81 63.81 0 0 1-9.664 14.216l11.904 10.688a79.53 79.53 0 0 0 12.088-17.776l-14.328-7.128z" fill="#cd9b1d"/></svg>