<svg xmlns="http://www.w3.org/2000/svg" viewBox="0 0 512 512" width="512" height="512"><path d="M144.099 28.444c-40.85 0-74.084 33.233-74.084 74.084 0 40.85 33.234 74.084 74.084 74.084s74.084-33.233 74.084-74.084c-.001-40.851-33.234-74.084-74.084-74.084zm0 131.704c-31.771 0-57.621-25.848-57.621-57.621s25.849-57.621 57.621-57.621 57.621 25.848 57.621 57.621-25.85 57.621-57.621 57.621zm-1.006 31.83L95.35 178.433v67.675l47.743-12.605 47.743 12.605v-67.675l-47.743 13.545zm31.28 32.757l-31.28-8.258-31.28 8.258v-24.518l31.28 8.874 31.28-8.874v24.518z" fill="#cd9b1d"/><path d="M369.734 213.78l-52.133 52.131-48.708-48.708c-9.848-9.847-22.937-15.269-36.865-15.269h-.01l-23.072.005.004 16.463 23.071-.005h.008c9.528 0 18.486 3.71 25.222 10.447l60.348 60.348 58.95-58.95h34.544l-94.312 105.021-74.911-67.82v228.093H77.24v-95.942h16.281v75.73h98.961v-75.73h41.158v-64.207h-41.158v-8.23H93.521v8.23h-16.28V286H60.778v65.851h32.743v31.281h-60.46v-129.03c0-19.664 15.998-35.665 35.662-35.67l-.004-16.463c-28.74.007-52.121 23.393-52.121 52.133v145.492h44.181V512h197.556V304.556l59.653 54.006L448.007 213.78h-78.273zM192.482 351.851h24.695v31.281h-24.695v-31.281zm-82.498-8.23h66.035v115.241h-66.035V343.621z" fill="#cd9b1d"/><path d="M482.518 187.771c-3.959-46.818-41.359-84.221-88.089-88.028V85.7h-16.463v14.109c-46.388 4.135-83.419 41.39-87.358 87.962h-13.615v16.463h218.41v-16.463h-12.885zm-175.383 0c4.122-40.325 38.171-71.888 79.427-71.888 41.256 0 75.305 31.564 79.428 71.888H307.135z" fill="#cd9b1d"/><path d="M328.028 178.99h16.463c0-17.923 14.524-32.503 32.377-32.503v-16.463c-26.93 0-48.84 21.966-48.84 48.966zM472.357 34.572h16.463v16.463h-16.463zm0 65.852h16.463v14.817h-16.463zm0-32.926h16.463v16.463h-16.463zm-31.28-16.463h16.463v16.463h-16.463zm0-32.926h16.463v16.463h-16.463zm-32.926 14.817h16.463v16.463h-16.463zm0-32.926h16.463v16.463h-16.463z" fill="#cd9b1d"/></svg>