<svg xmlns="http://www.w3.org/2000/svg" width="29" height="46" viewBox="0 0 29 46"><defs><style>.cls-1{fill-rule:evenodd;filter:url(#filter)}</style><filter id="filter" x="3308" y="11193" width="29" height="46" filterUnits="userSpaceOnUse"><feFlood result="flood" flood-color="#cd9b1d"/><feComposite result="composite" operator="in" in2="SourceGraphic"/><feBlend result="blend" in2="SourceGraphic"/></filter></defs><path id="arrow-prev.svg" class="cls-1" d="M3329.69 11193a5.637 5.637 0 0 1 4.05 1.4 5.7 5.7 0 0 1 .51 8.1l-12.46 13.9 13.44 12.8a5.677 5.677 0 0 1 .12 8.1 5.919 5.919 0 0 1-8.2.1l-17.4-16.7a5.553 5.553 0 0 1-.31-7.8l16.12-18a5.645 5.645 0 0 1 4.13-1.9z" transform="translate(-3308 -11193)"/></svg>