<svg xmlns="http://www.w3.org/2000/svg" width="28.84" height="46" viewBox="0 0 28.84 46"><defs><style>.cls-1{fill-rule:evenodd;filter:url(#filter)}</style><filter id="filter" x="3974.19" y="11192.9" width="28.84" height="46" filterUnits="userSpaceOnUse"><feFlood result="flood" flood-color="#cd9b1d"/><feComposite result="composite" operator="in" in2="SourceGraphic"/><feBlend result="blend" in2="SourceGraphic"/></filter></defs><path id="arrow-next.svg" class="cls-1" d="M3981.05 11238.9a5.575 5.575 0 0 1-4.03-1.4 5.7 5.7 0 0 1-.42-8.1l12.61-13.7-13.3-13a5.686 5.686 0 0 1-.03-8.1 5.824 5.824 0 0 1 8.2 0l17.22 16.8a5.672 5.672 0 0 1 .22 7.9l-16.31 17.8a5.621 5.621 0 0 1-4.16 1.8z" transform="translate(-3974.19 -11192.9)"/></svg>