<svg xmlns="http://www.w3.org/2000/svg" width="43" height="34" viewBox="0 0 43 34"><defs><style>.cls-1{fill-rule:evenodd;filter:url(#filter)}</style><filter id="filter" x="4187" y="6119" width="43" height="34" filterUnits="userSpaceOnUse"><feFlood result="flood" flood-color="#cd9b1d"/><feComposite result="composite" operator="in" in2="SourceGraphic"/><feBlend result="blend" in2="SourceGraphic"/></filter></defs><path id="icon-phone.svg" class="cls-1" d="M4195.96 6121.04c.03 0 .33-.04.33-.04a.609.609 0 0 0 .52-.67.6.6 0 0 0-.68-.51l-.25.03a.61.61 0 0 0-.51.67.6.6 0 0 0 .59.52zm33.44 6.64h-.31v-2.46a4.786 4.786 0 0 0-2.93-4.41 11.085 11.085 0 0 0-1.26-.35h-.03a93.093 93.093 0 0 0-26.87-.87.594.594 0 1 0 .13 1.18 92.106 92.106 0 0 1 26.52.85 10.261 10.261 0 0 1 1.04.28 3.608 3.608 0 0 1 2.21 3.32v2.47h-1.05a.593.593 0 0 0-.6.59.6.6 0 0 0 .6.6h1.95v5.43l-10.96-1.74v-3.69h7.26a.6.6 0 0 0 .6-.6.593.593 0 0 0-.6-.59h-6.37v-.91a.594.594 0 0 0-.52-.59 68.055 68.055 0 0 0-18.91-.07l-.54.07a.594.594 0 0 0-.52.59v.91h-2.52a.593.593 0 0 0-.6.59.6.6 0 0 0 .6.6h3.44v3.69l-10.97 1.74v-5.43h5.01a.6.6 0 0 0 .6-.6.593.593 0 0 0-.6-.59h-4.13v-3.16a2.856 2.856 0 0 1 2.35-2.81c.17-.03 1.87-.28 2.49-.37a.6.6 0 1 0-.19-1.18c-.61.1-2.23.34-2.42.37a4.046 4.046 0 0 0-3.43 3.99v3.15h-.27a.6.6 0 0 0-.6.6v6.73a.6.6 0 0 0 .21.45.566.566 0 0 0 .48.14l12.16-1.94a.593.593 0 0 0 .5-.59v-4.79a.593.593 0 0 0-.59-.6h-.33v-.38l.03-.01a67.08 67.08 0 0 1 18.07.01v.38h-.29a.6.6 0 0 0-.6.6v4.79a.6.6 0 0 0 .51.59l12.16 1.94h.09a.568.568 0 0 0 .39-.14.6.6 0 0 0 .21-.45v-6.73a.6.6 0 0 0-.6-.6zm-.94 13.99h-2.32a9.942 9.942 0 0 1-9.96-9.9v-3.19a.6.6 0 0 0-.49-.59 40.346 40.346 0 0 0-13.95-.08l-.47.08a.6.6 0 0 0-.49.59v4.08a9.937 9.937 0 0 1-9.92 9.01h-2.4a.6.6 0 0 0-.6.6v7.99a.593.593 0 0 0 .6.59h2.88v1.56a.6.6 0 0 0 .6.59h3.5a.6.6 0 0 0 .6-.59v-1.56h16.54a.59.59 0 1 0 0-1.18h-17.14a.593.593 0 0 0-.6.59v1.55h-2.31v-1.55a.591.591 0 0 0-.59-.59h-2.88v-1.06h4.71a.6.6 0 0 0 .6-.6.593.593 0 0 0-.6-.59h-4.71v-4.56h1.8a11.177 11.177 0 0 0 7.56-2.93 11.05 11.05 0 0 0 3.55-7.19v-3.66a38.918 38.918 0 0 1 13.01 0l.01 2.7a11.126 11.126 0 0 0 11.15 11.08h1.72v4.56h-2.6a.585.585 0 0 0-.59.59.593.593 0 0 0 .59.6h2.6v1.06h-2.88a.585.585 0 0 0-.59.59v1.55h-2.31v-1.55a.593.593 0 0 0-.6-.59h-6.82a.59.59 0 0 0 0 1.18h6.22v1.56a.6.6 0 0 0 .6.59h3.5a.6.6 0 0 0 .6-.59v-1.56h2.88a.585.585 0 0 0 .59-.59v-7.99a.593.593 0 0 0-.59-.6zm-33.57 6.34a.6.6 0 0 0 .6.6h25.14a.6.6 0 0 0 .6-.6.593.593 0 0 0-.6-.59h-25.14a.593.593 0 0 0-.6.59zm28.76.6a.6.6 0 0 0 .6-.6.593.593 0 0 0-.6-.59h-.91a.593.593 0 0 0-.6.59.6.6 0 0 0 .6.6h.91zm-11.26-4.58a.586.586 0 0 0-.05.83.6.6 0 0 0 .84.06 7.158 7.158 0 1 0-4.72 1.77 6.973 6.973 0 0 0 2.89-.61.586.586 0 0 0 .31-.78.6.6 0 0 0-.79-.3 6.014 6.014 0 0 1-2.41.5 5.927 5.927 0 1 1 3.93-1.47zm-4.07-6.66a.591.591 0 1 0-.07-1.18 3.4 3.4 0 1 0 3.63 3.39 3.363 3.363 0 0 0-1.3-2.67.6.6 0 0 0-.84.1.581.581 0 0 0 .1.83 2.2 2.2 0 0 1 .85 1.74 2.23 2.23 0 1 1-2.37-2.21z" transform="translate(-4187 -6119)"/></svg>